<!--?xml version="1.0" standalone="no"?-->              <svg id="sw-js-blob-svg" viewBox="0 0 100 100" xmlns="http://www.w3.org/2000/svg">                    <defs>                         <linearGradient id="sw-gradient" x1="0" x2="1" y1="1" y2="0">                            <stop id="stop1" stop-color="rgba(45.32, 62.683, 47.097, 1)" offset="0%"></stop>                            <stop id="stop2" stop-color="rgba(141.579, 176.522, 171.195, 1)" offset="100%"></stop>                        </linearGradient>                    </defs>                <path fill="url(#sw-gradient)" d="M17.9,-31.5C23.5,-27.7,28.7,-23.6,32.3,-18.3C35.9,-13,37.9,-6.5,39.2,0.7C40.5,8,41,16,37.9,22.2C34.8,28.4,28.1,32.7,21.2,36.5C14.3,40.2,7.1,43.4,-0.1,43.7C-7.4,43.9,-14.8,41.2,-21.2,37.1C-27.5,33,-32.8,27.5,-34.9,21.1C-37,14.7,-35.9,7.3,-34.8,0.6C-33.7,-6.1,-32.6,-12.1,-30.8,-19.2C-29.1,-26.2,-26.8,-34.2,-21.5,-38.2C-16.3,-42.3,-8.1,-42.3,-1,-40.5C6.1,-38.8,12.2,-35.3,17.9,-31.5Z" width="100%" height="100%" transform="translate(50 50)" stroke-width="0" style="transition: all 0.3s ease 0s;"></path>              </svg>